<svg xmlns="http://www.w3.org/2000/svg" width="28" height="28"><g class="layer"><path fill="#e2e2e2" d="M0 0h28v28H0z"/><path fill="#3f3f3f" fill-rule="evenodd" d="m21.85 10.75 4.15.83v4.84l-4.15.83 2.35 3.52-3.43 3.43-3.52-2.35-.83 4.15h-4.84l-.83-4.15-3.52 2.35-3.43-3.43 2.35-3.52L2 16.42v-4.84l4.15-.83L3.8 7.23 7.23 3.8l3.52 2.35.83-4.15h4.84l.83 4.15 3.52-2.35 3.43 3.43-2.35 3.52zm-1.57 5.07 4-.81v-2l-4-.81-.54-1.3 2.29-3.43-1.43-1.43-3.43 2.29-1.3-.54-.81-4h-2l-.81 4-1.3.54-3.43-2.29-1.43 1.43 2.29 3.43-.54 1.3-4 .81v2l4 .81.54 1.3-2.29 3.43 1.43 1.43 3.43-2.29 1.3.54.81 4h2l.81-4 1.3-.54 3.43 2.29 1.43-1.43-2.29-3.43.54-1.3zm-8.19-4.67a3.43 3.43 0 0 1 1.91-.58A3.44 3.44 0 0 1 17.43 14a3.43 3.43 0 1 1-5.34-2.85zm.96 4.27c.28.19.61.29.95.29A1.7 1.7 0 0 0 15.71 14a1.71 1.71 0 1 0-2.66 1.42z" clip-rule="evenodd"/></g></svg>